<svg width="38" height="33" viewBox="0 0 38 33" fill="none" xmlns="http://www.w3.org/2000/svg">
<path d="M6.25977 14.5029L6.94241 13.683L15.4121 3.50999L6.25977 14.5029ZM6.25977 14.5029H7.32667M6.25977 14.5029H7.32667M7.32667 14.5029H35C35.4862 14.5029 35.9525 14.6961 36.2964 15.0399C36.6402 15.3837 36.8333 15.85 36.8333 16.3363C36.8333 16.8225 36.6402 17.2888 36.2964 17.6326C35.9525 17.9764 35.4862 18.1696 35 18.1696H7.32667H6.25977L6.94241 18.9895L15.4124 29.1628L15.4125 29.163C15.5669 29.3483 15.6832 29.5621 15.7548 29.7924C15.8264 30.0227 15.8518 30.2648 15.8297 30.505C15.8076 30.7451 15.7383 30.9785 15.6258 31.1918C15.5133 31.405 15.3599 31.594 15.1743 31.7479C14.8445 32.0212 14.4293 32.1704 14.001 32.1696L13.9992 32.1696C13.7299 32.17 13.4637 32.1111 13.2197 31.997C12.9758 31.883 12.7599 31.7165 12.5875 31.5096L12.5874 31.5095L0.934356 17.5258C0.874421 17.4392 0.820558 17.3486 0.773161 17.2545L0.717649 17.1444L0.663334 17.1056V17.081L0.628319 16.9924C0.545688 16.7834 0.502202 16.561 0.500019 16.3363C0.501812 16.1517 0.531474 15.9686 0.58781 15.7933C0.656447 15.7272 0.719977 15.6464 0.764329 15.545C0.79832 15.4673 0.81396 15.3906 0.821078 15.328C0.85597 15.2658 0.893769 15.2053 0.934352 15.1467L12.5874 1.16301L12.5879 1.16252M7.32667 14.5029L12.5879 1.16252M12.5879 1.16252C12.8991 0.787998 13.3465 0.552473 13.8314 0.507762C14.3164 0.46305 14.7992 0.612815 15.1737 0.924108C15.5483 1.2354 15.7838 1.68272 15.8285 2.16767C15.8732 2.65248 15.7235 3.13519 15.4124 3.50967L12.5879 1.16252Z" fill="#F5F5F5" stroke="black"/>
</svg>
